<svg xmlns="http://www.w3.org/2000/svg" xmlns:xlink="http://www.w3.org/1999/xlink" version="1.1" width="1000" height="1000" viewBox="0 0 1000 1000" xml:space="preserve">
<desc>Created with Fabric.js 3.5.0</desc>
<defs>
</defs>
<rect x="0" y="0" width="100%" height="100%" fill="rgba(255,255,255,0.44)"/>
<g transform="matrix(7.1481 0 0 7.1481 500.0021 500.0021)" id="370375">
<path style="stroke: none; stroke-width: 0; stroke-dasharray: none; stroke-linecap: butt; stroke-dashoffset: 0; stroke-linejoin: miter; stroke-miterlimit: 4; is-custom-font: none; font-file-url: none; fill: rgb(241,90,36); fill-rule: evenodd; opacity: 1;" vector-effect="non-scaling-stroke" transform=" translate(-61.44, -61.44)" d="M 61.44 0 c 33.93 0 61.44 27.51 61.44 61.44 s -27.51 61.44 -61.44 61.44 S 0 95.37 0 61.44 S 27.51 0 61.44 0 L 61.44 0 z" stroke-linecap="round"/>
</g>
<g transform="matrix(19.2643 0 0 19.2643 499.9997 499.9997)" id="947508">
<path style="stroke: none; stroke-width: 1; stroke-dasharray: none; stroke-linecap: butt; stroke-dashoffset: 0; stroke-linejoin: miter; stroke-miterlimit: 4; is-custom-font: none; font-file-url: none; fill: rgb(255,255,255); fill-rule: nonzero; opacity: 1;" vector-effect="non-scaling-stroke" transform=" translate(-16, -16)" d="M 28 14 H 18 V 4 c 0 -1.104 -0.896 -2 -2 -2 s -2 0.896 -2 2 v 10 H 4 c -1.104 0 -2 0.896 -2 2 s 0.896 2 2 2 h 10 v 10 c 0 1.104 0.896 2 2 2 s 2 -0.896 2 -2 V 18 h 10 c 1.104 0 2 -0.896 2 -2 S 29.104 14 28 14 z" stroke-linecap="round"/>
</g>
</svg>